<?xml version="1.0" standalone="no"?>
 <!DOCTYPE svg PUBLIC "-//W3C//DTD SVG 1.1//EN" 
 "http://www.w3.org/Graphics/SVG/1.1/DTD/svg11.dtd"> 
<svg
  xmlns:svg="http://www.w3.org/2000/svg"
  xmlns="http://www.w3.org/2000/svg"
  xmlns:xlink="http://www.w3.org/1999/xlink"
  version="1.1"
  width="297.0022mm" height="210.0072mm" viewBox="0.0000 0.0000 297.0022 210.0072">
<title>SVG Image created as raai_vehicle-F_Fab.svg date 2023/12/22 01:14:51 </title>
  <desc>Image generated by PCBNEW </desc>
<g style="fill:#000000; fill-opacity:1.0000;stroke:#000000; stroke-opacity:1.0000;
stroke-linecap:round; stroke-linejoin:round;"
 transform="translate(0 0) scale(1 1)">
</g>
<g style="fill:#000000; fill-opacity:0.0; 
stroke:#000000; stroke-width:0.0000; stroke-opacity:1; 
stroke-linecap:round; stroke-linejoin:round;">
</g>
<g style="fill:#000000; fill-opacity:0.0; 
stroke:#000000; stroke-width:0.1500; stroke-opacity:1; 
stroke-linecap:round; stroke-linejoin:round;">
<g transform="rotate(-270.000000 159.0700 101.1840)">
<text x="159.0700" y="101.6840"
textLength="13.5833" font-size="1.3333" lengthAdjust="spacingAndGlyphs"
text-anchor="middle" opacity="0">RaspberryPi-Pico</text>
</g>
<g class="stroked-text"><desc>RaspberryPi-Pico</desc>
<path d="M158.6152 95.3269
L159.0914 94.9935
" />
<path d="M158.6152 94.7554
L159.6152 94.7554
" />
<path d="M159.6152 94.7554
L159.6152 95.1364
" />
<path d="M159.6152 95.1364
L159.5676 95.2316
" />
<path d="M159.5676 95.2316
L159.5199 95.2792
" />
<path d="M159.5199 95.2792
L159.4247 95.3269
" />
<path d="M159.4247 95.3269
L159.2818 95.3269
" />
<path d="M159.2818 95.3269
L159.1866 95.2792
" />
<path d="M159.1866 95.2792
L159.1390 95.2316
" />
<path d="M159.1390 95.2316
L159.0914 95.1364
" />
<path d="M159.0914 95.1364
L159.0914 94.7554
" />
<path d="M158.6152 96.1840
L159.1390 96.1840
" />
<path d="M159.1390 96.1840
L159.2342 96.1364
" />
<path d="M159.2342 96.1364
L159.2818 96.0411
" />
<path d="M159.2818 96.0411
L159.2818 95.8507
" />
<path d="M159.2818 95.8507
L159.2342 95.7554
" />
<path d="M158.6628 96.1840
L158.6152 96.0888
" />
<path d="M158.6152 96.0888
L158.6152 95.8507
" />
<path d="M158.6152 95.8507
L158.6628 95.7554
" />
<path d="M158.6628 95.7554
L158.7580 95.7078
" />
<path d="M158.7580 95.7078
L158.8533 95.7078
" />
<path d="M158.8533 95.7078
L158.9485 95.7554
" />
<path d="M158.9485 95.7554
L158.9961 95.8507
" />
<path d="M158.9961 95.8507
L158.9961 96.0888
" />
<path d="M158.9961 96.0888
L159.0438 96.1840
" />
<path d="M158.6628 96.6126
L158.6152 96.7078
" />
<path d="M158.6152 96.7078
L158.6152 96.8983
" />
<path d="M158.6152 96.8983
L158.6628 96.9935
" />
<path d="M158.6628 96.9935
L158.7580 97.0411
" />
<path d="M158.7580 97.0411
L158.8057 97.0411
" />
<path d="M158.8057 97.0411
L158.9009 96.9935
" />
<path d="M158.9009 96.9935
L158.9485 96.8983
" />
<path d="M158.9485 96.8983
L158.9485 96.7554
" />
<path d="M158.9485 96.7554
L158.9961 96.6602
" />
<path d="M158.9961 96.6602
L159.0914 96.6126
" />
<path d="M159.0914 96.6126
L159.1390 96.6126
" />
<path d="M159.1390 96.6126
L159.2342 96.6602
" />
<path d="M159.2342 96.6602
L159.2818 96.7554
" />
<path d="M159.2818 96.7554
L159.2818 96.8983
" />
<path d="M159.2818 96.8983
L159.2342 96.9935
" />
<path d="M159.2818 97.4697
L158.2818 97.4697
" />
<path d="M159.2342 97.4697
L159.2818 97.5650
" />
<path d="M159.2818 97.5650
L159.2818 97.7554
" />
<path d="M159.2818 97.7554
L159.2342 97.8507
" />
<path d="M159.2342 97.8507
L159.1866 97.8983
" />
<path d="M159.1866 97.8983
L159.0914 97.9459
" />
<path d="M159.0914 97.9459
L158.8057 97.9459
" />
<path d="M158.8057 97.9459
L158.7104 97.8983
" />
<path d="M158.7104 97.8983
L158.6628 97.8507
" />
<path d="M158.6628 97.8507
L158.6152 97.7554
" />
<path d="M158.6152 97.7554
L158.6152 97.5650
" />
<path d="M158.6152 97.5650
L158.6628 97.4697
" />
<path d="M158.6152 98.3745
L159.6152 98.3745
" />
<path d="M159.2342 98.3745
L159.2818 98.4697
" />
<path d="M159.2818 98.4697
L159.2818 98.6602
" />
<path d="M159.2818 98.6602
L159.2342 98.7554
" />
<path d="M159.2342 98.7554
L159.1866 98.8030
" />
<path d="M159.1866 98.8030
L159.0914 98.8507
" />
<path d="M159.0914 98.8507
L158.8057 98.8507
" />
<path d="M158.8057 98.8507
L158.7104 98.8030
" />
<path d="M158.7104 98.8030
L158.6628 98.7554
" />
<path d="M158.6628 98.7554
L158.6152 98.6602
" />
<path d="M158.6152 98.6602
L158.6152 98.4697
" />
<path d="M158.6152 98.4697
L158.6628 98.3745
" />
<path d="M158.6628 99.6602
L158.6152 99.5650
" />
<path d="M158.6152 99.5650
L158.6152 99.3745
" />
<path d="M158.6152 99.3745
L158.6628 99.2792
" />
<path d="M158.6628 99.2792
L158.7580 99.2316
" />
<path d="M158.7580 99.2316
L159.1390 99.2316
" />
<path d="M159.1390 99.2316
L159.2342 99.2792
" />
<path d="M159.2342 99.2792
L159.2818 99.3745
" />
<path d="M159.2818 99.3745
L159.2818 99.5650
" />
<path d="M159.2818 99.5650
L159.2342 99.6602
" />
<path d="M159.2342 99.6602
L159.1390 99.7078
" />
<path d="M159.1390 99.7078
L159.0438 99.7078
" />
<path d="M159.0438 99.7078
L158.9485 99.2316
" />
<path d="M158.6152 100.1364
L159.2818 100.1364
" />
<path d="M159.0914 100.1364
L159.1866 100.1840
" />
<path d="M159.1866 100.1840
L159.2342 100.2316
" />
<path d="M159.2342 100.2316
L159.2818 100.3269
" />
<path d="M159.2818 100.3269
L159.2818 100.4221
" />
<path d="M158.6152 100.7554
L159.2818 100.7554
" />
<path d="M159.0914 100.7554
L159.1866 100.8030
" />
<path d="M159.1866 100.8030
L159.2342 100.8507
" />
<path d="M159.2342 100.8507
L159.2818 100.9459
" />
<path d="M159.2818 100.9459
L159.2818 101.0411
" />
<path d="M159.2818 101.2792
L158.6152 101.5173
" />
<path d="M159.2818 101.7554
L158.6152 101.5173
" />
<path d="M158.6152 101.5173
L158.3771 101.4221
" />
<path d="M158.3771 101.4221
L158.3295 101.3745
" />
<path d="M158.3295 101.3745
L158.2818 101.2792
" />
<path d="M158.6152 102.1364
L159.6152 102.1364
" />
<path d="M159.6152 102.1364
L159.6152 102.5173
" />
<path d="M159.6152 102.5173
L159.5676 102.6126
" />
<path d="M159.5676 102.6126
L159.5199 102.6602
" />
<path d="M159.5199 102.6602
L159.4247 102.7078
" />
<path d="M159.4247 102.7078
L159.2818 102.7078
" />
<path d="M159.2818 102.7078
L159.1866 102.6602
" />
<path d="M159.1866 102.6602
L159.1390 102.6126
" />
<path d="M159.1390 102.6126
L159.0914 102.5173
" />
<path d="M159.0914 102.5173
L159.0914 102.1364
" />
<path d="M158.6152 103.1364
L159.2818 103.1364
" />
<path d="M159.6152 103.1364
L159.5676 103.0888
" />
<path d="M159.5676 103.0888
L159.5199 103.1364
" />
<path d="M159.5199 103.1364
L159.5676 103.1840
" />
<path d="M159.5676 103.1840
L159.6152 103.1364
" />
<path d="M159.6152 103.1364
L159.5199 103.1364
" />
<path d="M158.9961 103.6126
L158.9961 104.3745
" />
<path d="M158.6152 104.8507
L159.6152 104.8507
" />
<path d="M159.6152 104.8507
L159.6152 105.2316
" />
<path d="M159.6152 105.2316
L159.5676 105.3269
" />
<path d="M159.5676 105.3269
L159.5199 105.3745
" />
<path d="M159.5199 105.3745
L159.4247 105.4221
" />
<path d="M159.4247 105.4221
L159.2818 105.4221
" />
<path d="M159.2818 105.4221
L159.1866 105.3745
" />
<path d="M159.1866 105.3745
L159.1390 105.3269
" />
<path d="M159.1390 105.3269
L159.0914 105.2316
" />
<path d="M159.0914 105.2316
L159.0914 104.8507
" />
<path d="M158.6152 105.8507
L159.2818 105.8507
" />
<path d="M159.6152 105.8507
L159.5676 105.8030
" />
<path d="M159.5676 105.8030
L159.5199 105.8507
" />
<path d="M159.5199 105.8507
L159.5676 105.8983
" />
<path d="M159.5676 105.8983
L159.6152 105.8507
" />
<path d="M159.6152 105.8507
L159.5199 105.8507
" />
<path d="M158.6628 106.7554
L158.6152 106.6602
" />
<path d="M158.6152 106.6602
L158.6152 106.4697
" />
<path d="M158.6152 106.4697
L158.6628 106.3745
" />
<path d="M158.6628 106.3745
L158.7104 106.3269
" />
<path d="M158.7104 106.3269
L158.8057 106.2792
" />
<path d="M158.8057 106.2792
L159.0914 106.2792
" />
<path d="M159.0914 106.2792
L159.1866 106.3269
" />
<path d="M159.1866 106.3269
L159.2342 106.3745
" />
<path d="M159.2342 106.3745
L159.2818 106.4697
" />
<path d="M159.2818 106.4697
L159.2818 106.6602
" />
<path d="M159.2818 106.6602
L159.2342 106.7554
" />
<path d="M158.6152 107.3269
L158.6628 107.2316
" />
<path d="M158.6628 107.2316
L158.7104 107.1840
" />
<path d="M158.7104 107.1840
L158.8057 107.1364
" />
<path d="M158.8057 107.1364
L159.0914 107.1364
" />
<path d="M159.0914 107.1364
L159.1866 107.1840
" />
<path d="M159.1866 107.1840
L159.2342 107.2316
" />
<path d="M159.2342 107.2316
L159.2818 107.3269
" />
<path d="M159.2818 107.3269
L159.2818 107.4697
" />
<path d="M159.2818 107.4697
L159.2342 107.5650
" />
<path d="M159.2342 107.5650
L159.1866 107.6126
" />
<path d="M159.1866 107.6126
L159.0914 107.6602
" />
<path d="M159.0914 107.6602
L158.8057 107.6602
" />
<path d="M158.8057 107.6602
L158.7104 107.6126
" />
<path d="M158.7104 107.6126
L158.6628 107.5650
" />
<path d="M158.6628 107.5650
L158.6152 107.4697
" />
<path d="M158.6152 107.4697
L158.6152 107.3269
" />
</g><g transform="rotate(-270.000000 156.5300 101.1840)">
<text x="156.5300" y="101.6840"
textLength="2.0595" font-size="1.3333" lengthAdjust="spacingAndGlyphs"
text-anchor="middle" opacity="0">A1</text>
</g>
<g class="stroked-text"><desc>A1</desc>
<path d="M156.3609 100.4697
L156.3609 100.9459
" />
<path d="M156.0752 100.3745
L157.0752 100.7078
" />
<path d="M157.0752 100.7078
L156.0752 101.0411
" />
<path d="M156.0752 101.8983
L156.0752 101.3269
" />
<path d="M156.0752 101.6126
L157.0752 101.6126
" />
<path d="M157.0752 101.6126
L156.9323 101.5173
" />
<path d="M156.9323 101.5173
L156.8371 101.4221
" />
<path d="M156.8371 101.4221
L156.7895 101.3269
" />
</g><g >
</g>
<g >
</g>
<g >
</g>
<g >
</g>
</g> 
</svg>
