<?xml version="1.0" standalone="no"?>
 <!DOCTYPE svg PUBLIC "-//W3C//DTD SVG 1.1//EN" 
 "http://www.w3.org/Graphics/SVG/1.1/DTD/svg11.dtd"> 
<svg
  xmlns:svg="http://www.w3.org/2000/svg"
  xmlns="http://www.w3.org/2000/svg"
  xmlns:xlink="http://www.w3.org/1999/xlink"
  version="1.1"
  width="297.0022mm" height="210.0072mm" viewBox="0.0000 0.0000 297.0022 210.0072">
<title>SVG Image created as raai_vehicle-Edge_Cuts.svg date 2023/12/22 01:14:51 </title>
  <desc>Image generated by PCBNEW </desc>
<g style="fill:#000000; fill-opacity:1.0000;stroke:#000000; stroke-opacity:1.0000;
stroke-linecap:round; stroke-linejoin:round;"
 transform="translate(0 0) scale(1 1)">
</g>
<g style="fill:#000000; fill-opacity:0.0; 
stroke:#000000; stroke-width:0.0000; stroke-opacity:1; 
stroke-linecap:round; stroke-linejoin:round;">
</g>
<g style="fill:#000000; fill-opacity:0.0; 
stroke:#000000; stroke-width:0.2000; stroke-opacity:1; 
stroke-linecap:round; stroke-linejoin:round;">
<circle cx="107.4280" cy="119.2380" r="1.6000" /> 
<circle cx="157.4280" cy="119.2380" r="1.6000" /> 
<path d="M152.4280 162.2380 A10.0000 10.0000 0.0 0 0 162.4280 152.2380" />
<path d="M162.4280 51.2380
L162.4280 152.2380
" />
<path d="M102.4280 152.2380
L102.4280 51.2380
" />
<path d="M114.9280 22.2380
L149.9280 22.2380
" />
<path d="M152.4280 162.2380
L112.4280 162.2380
" />
<path d="M149.9280 22.2380
L162.4280 51.2380
" />
<circle cx="144.6780" cy="26.2380" r="1.5000" /> 
<path d="M114.9280 22.2380
L102.4280 51.2380
" />
<circle cx="120.1780" cy="26.2380" r="1.5000" /> 
<circle cx="122.4280" cy="153.2380" r="1.6000" /> 
<path d="M102.4280 152.2380 A10.0000 10.0000 0.0 0 0 112.4280 162.2380" />
<g >
</g>
<g >
</g>
<g >
</g>
<g >
</g>
</g> 
</svg>
